<svg width="1080" height="919" viewBox="0 0 1080 919" fill="none" xmlns="http://www.w3.org/2000/svg">
<rect width="1080" height="919" fill="url(#paint0_linear)"/>
<circle cx="849.369" cy="282.33" r="139.33" fill="url(#paint1_linear)"/>
<circle cx="216.304" cy="651.696" r="125.304" fill="url(#paint2_linear)"/>
<g filter="url(#filter0_bd)">
<rect x="195" y="262" width="690.106" height="413.316" rx="37.4041" fill="url(#paint3_linear)"/>
<rect x="196.403" y="263.403" width="687.301" height="410.51" rx="36.0015" stroke="url(#paint4_linear)" stroke-width="2.80531"/>
</g>
<path opacity="0.8" d="M255.256 312.162H257.507C257.017 309.328 254.595 307.368 251.456 307.368C247.692 307.368 244.943 310.202 244.943 314.846C244.943 319.449 247.614 322.311 251.556 322.311C255.085 322.311 257.607 319.996 257.607 316.324V314.669H251.889V316.48H255.483C255.433 318.824 253.885 320.308 251.556 320.308C248.992 320.308 247.124 318.369 247.124 314.832C247.124 311.31 249.006 309.371 251.47 309.371C253.402 309.371 254.709 310.436 255.256 312.162ZM265.193 322.112H273.978V320.223H267.387V307.567H265.193V322.112ZM283.233 322.112L284.568 318.263H290.25L291.578 322.112H293.908L288.673 307.567H286.138L280.903 322.112H283.233ZM285.207 316.416L287.352 310.209H287.466L289.611 316.416H285.207ZM308.624 311.388H310.741C310.677 309.058 308.617 307.368 305.663 307.368C302.744 307.368 300.506 309.037 300.506 311.544C300.506 313.568 301.955 314.754 304.292 315.386L306.011 315.855C307.566 316.267 308.766 316.778 308.766 318.071C308.766 319.491 307.41 320.429 305.542 320.429C303.852 320.429 302.445 319.676 302.317 318.092H300.116C300.258 320.727 302.296 322.354 305.556 322.354C308.972 322.354 310.94 320.557 310.94 318.092C310.94 315.471 308.603 314.456 306.756 314.001L305.336 313.632C304.2 313.341 302.687 312.808 302.694 311.416C302.694 310.18 303.823 309.264 305.613 309.264C307.282 309.264 308.468 310.045 308.624 311.388ZM326.295 311.388H328.412C328.348 309.058 326.288 307.368 323.334 307.368C320.415 307.368 318.177 309.037 318.177 311.544C318.177 313.568 319.626 314.754 321.963 315.386L323.682 315.855C325.237 316.267 326.437 316.778 326.437 318.071C326.437 319.491 325.081 320.429 323.213 320.429C321.523 320.429 320.116 319.676 319.989 318.092H317.787C317.929 320.727 319.967 322.354 323.227 322.354C326.643 322.354 328.611 320.557 328.611 318.092C328.611 315.471 326.274 314.456 324.427 314.001L323.007 313.632C321.871 313.341 320.358 312.808 320.365 311.416C320.365 310.18 321.494 309.264 323.284 309.264C324.953 309.264 326.139 310.045 326.295 311.388ZM336.033 307.567V322.112H338.121V311.579H338.256L342.546 322.091H344.279L348.569 311.587H348.704V322.112H350.792V307.567H348.128L343.498 318.873H343.327L338.697 307.567H336.033ZM371.417 314.839C371.417 310.187 368.633 307.368 364.869 307.368C361.091 307.368 358.314 310.187 358.314 314.839C358.314 319.484 361.091 322.311 364.869 322.311C368.633 322.311 371.417 319.491 371.417 314.839ZM369.244 314.839C369.244 318.383 367.369 320.308 364.869 320.308C362.362 320.308 360.494 318.383 360.494 314.839C360.494 311.295 362.362 309.371 364.869 309.371C367.369 309.371 369.244 311.295 369.244 314.839ZM378.954 322.112H381.148V316.608H384.131C384.181 316.608 384.223 316.608 384.273 316.608L387.228 322.112H389.728L386.503 316.224C388.286 315.564 389.174 314.079 389.174 312.126C389.174 309.449 387.512 307.567 384.138 307.567H378.954V322.112ZM381.148 314.719V309.449H383.904C386.07 309.449 386.965 310.479 386.965 312.126C386.965 313.767 386.07 314.719 383.932 314.719H381.148ZM396.644 322.112H398.839V316.998H401.822C405.195 316.998 406.864 314.96 406.864 312.275C406.864 309.598 405.21 307.567 401.829 307.567H396.644V322.112ZM398.839 315.138V309.449H401.594C403.768 309.449 404.656 310.628 404.656 312.275C404.656 313.923 403.768 315.138 401.623 315.138H398.839ZM414.237 322.112H416.432V315.77H423.683V322.112H425.885V307.567H423.683V313.888H416.432V307.567H414.237V322.112ZM436.076 307.567H433.881V322.112H436.076V307.567ZM452.005 311.388H454.121C454.057 309.058 451.998 307.368 449.043 307.368C446.124 307.368 443.887 309.037 443.887 311.544C443.887 313.568 445.336 314.754 447.672 315.386L449.391 315.855C450.947 316.267 452.147 316.778 452.147 318.071C452.147 319.491 450.79 320.429 448.922 320.429C447.232 320.429 445.826 319.676 445.698 318.092H443.496C443.638 320.727 445.677 322.354 448.937 322.354C452.353 322.354 454.32 320.557 454.32 318.092C454.32 315.471 451.983 314.456 450.137 314.001L448.716 313.632C447.58 313.341 446.067 312.808 446.074 311.416C446.074 310.18 447.204 309.264 448.993 309.264C450.662 309.264 451.849 310.045 452.005 311.388ZM461.743 307.567V322.112H463.831V311.579H463.966L468.255 322.091H469.988L474.278 311.587H474.413V322.112H476.501V307.567H473.838L469.207 318.873H469.037L464.406 307.567H461.743Z" fill="white"/>
<path d="M246.257 563.112H267.053V559.334H251.627L266.925 536.947V534.021H246.129V537.8H261.556L246.257 560.186V563.112ZM286.546 534.021H282.157V563.112H286.546V534.021ZM326.018 534.021H321.672V555.385H321.402L306.601 534.021H302.538V563.112H306.928V541.777H307.197L321.984 563.112H326.018V534.021ZM342.021 563.112H360.43V559.334H346.41V550.427H359.308V546.663H346.41V537.8H360.26V534.021H342.021V563.112ZM375.723 563.112H386.873C393.635 563.112 396.689 559.746 396.689 555.285C396.689 550.783 393.535 548.24 390.652 548.084V547.8C393.322 547.118 395.552 545.3 395.552 541.663C395.552 537.359 392.569 534.021 386.376 534.021H375.723V563.112ZM380.112 559.348V550.03H386.603C390.126 550.03 392.328 552.302 392.328 555.072C392.328 557.515 390.666 559.348 386.447 559.348H380.112ZM380.112 546.606V537.757H386.106C389.586 537.757 391.248 539.589 391.248 542.004C391.248 544.817 388.947 546.606 385.993 546.606H380.112ZM409.25 534.021L419.804 551.692V563.112H424.179V551.692L434.733 534.021H429.747L422.148 547.246H421.835L414.236 534.021H409.25ZM464.344 541.663H468.577C468.449 537.004 464.33 533.623 458.421 533.623C452.582 533.623 448.108 536.962 448.108 541.976C448.108 546.024 451.006 548.396 455.679 549.66L459.117 550.598C462.227 551.422 464.628 552.444 464.628 555.03C464.628 557.871 461.915 559.746 458.179 559.746C454.798 559.746 451.986 558.24 451.73 555.072H447.327C447.611 560.342 451.688 563.595 458.207 563.595C465.04 563.595 468.975 560.001 468.975 555.072C468.975 549.831 464.301 547.8 460.608 546.89L457.767 546.152C455.494 545.569 452.469 544.504 452.483 541.72C452.483 539.248 454.742 537.416 458.321 537.416C461.659 537.416 464.031 538.979 464.344 541.663ZM486.043 563.112L488.713 555.413H500.077L502.733 563.112H507.392L496.923 534.021H491.852L481.383 563.112H486.043ZM489.991 551.72L494.281 539.305H494.508L498.798 551.72H489.991ZM521.193 534.021V563.112H525.369V542.047H525.639L534.219 563.069H537.684L546.264 542.061H546.534V563.112H550.71V534.021H545.383L536.122 556.635H535.781L526.52 534.021H521.193Z" fill="white"/>
<path opacity="0.8" d="M256.409 591.385V602.182C256.409 604.453 254.84 606.087 252.292 606.087C249.752 606.087 248.176 604.453 248.176 602.182V591.385H245.652V602.387C245.652 605.899 248.282 608.39 252.292 608.39C256.302 608.39 258.941 605.899 258.941 602.387V591.385H256.409ZM269.886 591.385H266.962L272.263 599.748L266.929 608.112H269.87L273.888 601.66H274.019L278.037 608.112H280.978L275.734 599.748L280.945 591.385H278.021L274.019 597.927H273.888L269.886 591.385ZM305.99 608.112C311.087 608.112 314.035 604.951 314.035 599.724C314.035 594.521 311.087 591.385 306.162 591.385H300.575V608.112H305.99ZM303.099 605.907V593.59H306.007C309.666 593.59 311.552 595.779 311.552 599.724C311.552 603.685 309.666 605.907 305.851 605.907H303.099ZM322.694 608.112H333.279V605.94H325.218V600.818H332.634V598.654H325.218V593.557H333.181V591.385H322.694V608.112ZM351.195 595.779H353.629C353.556 593.1 351.187 591.156 347.79 591.156C344.433 591.156 341.86 593.076 341.86 595.959C341.86 598.286 343.526 599.65 346.213 600.377L348.19 600.916C349.978 601.39 351.359 601.978 351.359 603.465C351.359 605.098 349.799 606.176 347.651 606.176C345.707 606.176 344.09 605.311 343.943 603.489H341.411C341.574 606.519 343.918 608.39 347.667 608.39C351.596 608.39 353.858 606.323 353.858 603.489C353.858 600.475 351.171 599.307 349.047 598.785L347.414 598.36C346.107 598.025 344.367 597.413 344.375 595.812C344.375 594.39 345.674 593.337 347.732 593.337C349.652 593.337 351.016 594.235 351.195 595.779ZM364.918 591.385H362.394V608.112H364.918V591.385ZM385.433 596.669H388.023C387.459 593.41 384.674 591.156 381.064 591.156C376.735 591.156 373.574 594.415 373.574 599.757C373.574 605.049 376.645 608.341 381.178 608.341C385.237 608.341 388.137 605.678 388.137 601.455V599.552H381.562V601.635H385.695C385.638 604.33 383.857 606.038 381.178 606.038C378.23 606.038 376.082 603.808 376.082 599.74C376.082 595.689 378.246 593.459 381.08 593.459C383.302 593.459 384.805 594.685 385.433 596.669ZM410.362 591.385H407.862V603.669H407.707L399.197 591.385H396.861V608.112H399.384V595.844H399.54L408.042 608.112H410.362V591.385ZM419.563 608.112H430.149V605.94H422.087V600.818H429.503V598.654H422.087V593.557H430.051V591.385H419.563V608.112ZM438.942 608.112H441.465V601.782H444.896C444.953 601.782 445.002 601.782 445.059 601.782L448.457 608.112H451.332L447.624 601.341C449.674 600.582 450.695 598.875 450.695 596.628C450.695 593.549 448.784 591.385 444.904 591.385H438.942V608.112ZM441.465 599.61V593.549H444.635C447.126 593.549 448.155 594.734 448.155 596.628C448.155 598.515 447.126 599.61 444.667 599.61H441.465Z" fill="white"/>
<defs>
<filter id="filter0_bd" x="145" y="212" width="790.106" height="513.316" filterUnits="userSpaceOnUse" color-interpolation-filters="sRGB">
<feFlood flood-opacity="0" result="BackgroundImageFix"/>
<feGaussianBlur in="BackgroundImage" stdDeviation="25"/>
<feComposite in2="SourceAlpha" operator="in" result="effect1_backgroundBlur"/>
<feColorMatrix in="SourceAlpha" type="matrix" values="0 0 0 0 0 0 0 0 0 0 0 0 0 0 0 0 0 0 127 0" result="hardAlpha"/>
<feMorphology radius="0.935103" operator="erode" in="SourceAlpha" result="effect2_dropShadow"/>
<feOffset dy="3.74041"/>
<feGaussianBlur stdDeviation="11.2212"/>
<feColorMatrix type="matrix" values="0 0 0 0 0.611765 0 0 0 0 0.673255 0 0 0 0 0.831373 0 0 0 0.25 0"/>
<feBlend mode="normal" in2="effect1_backgroundBlur" result="effect2_dropShadow"/>
<feBlend mode="normal" in="SourceGraphic" in2="effect2_dropShadow" result="shape"/>
</filter>
<linearGradient id="paint0_linear" x1="16" y1="-112.322" x2="959.296" y2="1285.75" gradientUnits="userSpaceOnUse">
<stop stop-color="#828FA4"/>
<stop offset="1" stop-color="#3D4551"/>
</linearGradient>
<linearGradient id="paint1_linear" x1="790" y1="84" x2="920" y2="496" gradientUnits="userSpaceOnUse">
<stop stop-color="#98A9FE"/>
<stop offset="1" stop-color="#5871F2"/>
</linearGradient>
<linearGradient id="paint2_linear" x1="76" y1="514" x2="304" y2="816" gradientUnits="userSpaceOnUse">
<stop stop-color="#98A9FE"/>
<stop offset="1" stop-color="#465DD9"/>
</linearGradient>
<linearGradient id="paint3_linear" x1="126.737" y1="240.586" x2="923.205" y2="754.126" gradientUnits="userSpaceOnUse">
<stop stop-color="white" stop-opacity="0.4"/>
<stop offset="1" stop-color="white" stop-opacity="0.1"/>
</linearGradient>
<linearGradient id="paint4_linear" x1="540.053" y1="225.169" x2="540.053" y2="723.677" gradientUnits="userSpaceOnUse">
<stop stop-color="white"/>
<stop offset="0.359375" stop-color="#B7C3ED"/>
<stop offset="0.708333" stop-color="#8D9DF0"/>
<stop offset="1" stop-color="#7B88CB"/>
</linearGradient>
</defs>
</svg>
